<svg width="863" height="257" viewBox="0 0 863 257" fill="none"
     xmlns="http://www.w3.org/2000/svg">
    <g filter="url(#filter0_d)">
        <rect x="8" y="49" width="340" height="175" fill="white"/>
    </g>
    <g filter="url(#filter1_d)">
        <rect x="488" y="67" width="340" height="175" fill="white"/>
    </g>
    <path d="M268.407 81H266.772V70.1631L263.494 71.3672V69.8906L268.152 68.1416H268.407V81ZM281.556 81H273.171V79.8311L277.601 74.9092C278.257 74.165 278.708 73.5615 278.954 73.0986C279.206 72.6299 279.332 72.1465 279.332 71.6484C279.332 70.9805 279.13 70.4326 278.726 70.0049C278.321 69.5771 277.782 69.3633 277.108 69.3633C276.3 69.3633 275.67 69.5947 275.219 70.0576C274.773 70.5146 274.551 71.1533 274.551 71.9736H272.925C272.925 70.7959 273.303 69.8438 274.059 69.1172C274.82 68.3906 275.837 68.0273 277.108 68.0273C278.298 68.0273 279.238 68.3408 279.93 68.9678C280.621 69.5889 280.967 70.418 280.967 71.4551C280.967 72.7148 280.164 74.2148 278.559 75.9551L275.131 79.6729H281.556V81ZM296.655 69.5918H292.542V81H290.863V69.5918H286.759V68.2031H296.655V69.5918ZM303.168 81C303.074 80.8125 302.998 80.4785 302.939 79.998C302.184 80.7832 301.281 81.1758 300.232 81.1758C299.295 81.1758 298.524 80.9121 297.921 80.3848C297.323 79.8516 297.024 79.1777 297.024 78.3633C297.024 77.373 297.399 76.6055 298.149 76.0605C298.905 75.5098 299.966 75.2344 301.331 75.2344H302.913V74.4873C302.913 73.9189 302.743 73.4678 302.403 73.1338C302.063 72.7939 301.562 72.624 300.9 72.624C300.32 72.624 299.834 72.7705 299.441 73.0635C299.049 73.3564 298.853 73.7109 298.853 74.127H297.218C297.218 73.6523 297.385 73.1953 297.719 72.7559C298.059 72.3105 298.516 71.959 299.09 71.7012C299.67 71.4434 300.306 71.3145 300.997 71.3145C302.093 71.3145 302.951 71.5898 303.572 72.1406C304.193 72.6855 304.516 73.4385 304.539 74.3994V78.7764C304.539 79.6494 304.65 80.3438 304.873 80.8594V81H303.168ZM300.47 79.7607C300.979 79.7607 301.463 79.6289 301.92 79.3652C302.377 79.1016 302.708 78.7588 302.913 78.3369V76.3857H301.639C299.646 76.3857 298.65 76.9688 298.65 78.1348C298.65 78.6445 298.82 79.043 299.16 79.3301C299.5 79.6172 299.937 79.7607 300.47 79.7607ZM308.854 81H307.229V67.5H308.854V81ZM314.119 76.5967L313.1 77.6602V81H311.474V67.5H313.1V75.665L313.97 74.6191L316.932 71.4902H318.909L315.209 75.4629L319.34 81H317.433L314.119 76.5967ZM326.125 78.4775C326.125 78.0381 325.958 77.6982 325.624 77.458C325.296 77.2119 324.719 77.001 323.893 76.8252C323.072 76.6494 322.419 76.4385 321.933 76.1924C321.452 75.9463 321.095 75.6533 320.86 75.3135C320.632 74.9736 320.518 74.5693 320.518 74.1006C320.518 73.3213 320.846 72.6621 321.502 72.123C322.164 71.584 323.008 71.3145 324.033 71.3145C325.111 71.3145 325.984 71.5928 326.652 72.1494C327.326 72.7061 327.663 73.418 327.663 74.2852H326.028C326.028 73.8398 325.838 73.4561 325.457 73.1338C325.082 72.8115 324.607 72.6504 324.033 72.6504C323.441 72.6504 322.979 72.7793 322.645 73.0371C322.311 73.2949 322.144 73.6318 322.144 74.0479C322.144 74.4404 322.299 74.7363 322.609 74.9355C322.92 75.1348 323.479 75.3252 324.288 75.5068C325.103 75.6885 325.762 75.9053 326.266 76.1572C326.77 76.4092 327.142 76.7139 327.382 77.0713C327.628 77.4229 327.751 77.8535 327.751 78.3633C327.751 79.2129 327.411 79.8955 326.731 80.4111C326.052 80.9209 325.17 81.1758 324.086 81.1758C323.324 81.1758 322.65 81.041 322.064 80.7715C321.479 80.502 321.019 80.127 320.685 79.6465C320.356 79.1602 320.192 78.6357 320.192 78.0732H321.818C321.848 78.6182 322.064 79.0518 322.469 79.374C322.879 79.6904 323.418 79.8486 324.086 79.8486C324.701 79.8486 325.193 79.7256 325.562 79.4795C325.938 79.2275 326.125 78.8936 326.125 78.4775Z" fill="black"/>
    <path d="M748.407 99H746.772V88.1631L743.494 89.3672V87.8906L748.152 86.1416H748.407V99ZM761.556 99H753.171V97.8311L757.601 92.9092C758.257 92.165 758.708 91.5615 758.954 91.0986C759.206 90.6299 759.332 90.1465 759.332 89.6484C759.332 88.9805 759.13 88.4326 758.726 88.0049C758.321 87.5771 757.782 87.3633 757.108 87.3633C756.3 87.3633 755.67 87.5947 755.219 88.0576C754.773 88.5146 754.551 89.1533 754.551 89.9736H752.925C752.925 88.7959 753.303 87.8438 754.059 87.1172C754.82 86.3906 755.837 86.0273 757.108 86.0273C758.298 86.0273 759.238 86.3408 759.93 86.9678C760.621 87.5889 760.967 88.418 760.967 89.4551C760.967 90.7148 760.164 92.2148 758.559 93.9551L755.131 97.6729H761.556V99ZM776.655 87.5918H772.542V99H770.863V87.5918H766.759V86.2031H776.655V87.5918ZM783.168 99C783.074 98.8125 782.998 98.4785 782.939 97.998C782.184 98.7832 781.281 99.1758 780.232 99.1758C779.295 99.1758 778.524 98.9121 777.921 98.3848C777.323 97.8516 777.024 97.1777 777.024 96.3633C777.024 95.373 777.399 94.6055 778.149 94.0605C778.905 93.5098 779.966 93.2344 781.331 93.2344H782.913V92.4873C782.913 91.9189 782.743 91.4678 782.403 91.1338C782.063 90.7939 781.562 90.624 780.9 90.624C780.32 90.624 779.834 90.7705 779.441 91.0635C779.049 91.3564 778.853 91.7109 778.853 92.127H777.218C777.218 91.6523 777.385 91.1953 777.719 90.7559C778.059 90.3105 778.516 89.959 779.09 89.7012C779.67 89.4434 780.306 89.3145 780.997 89.3145C782.093 89.3145 782.951 89.5898 783.572 90.1406C784.193 90.6855 784.516 91.4385 784.539 92.3994V96.7764C784.539 97.6494 784.65 98.3438 784.873 98.8594V99H783.168ZM780.47 97.7607C780.979 97.7607 781.463 97.6289 781.92 97.3652C782.377 97.1016 782.708 96.7588 782.913 96.3369V94.3857H781.639C779.646 94.3857 778.65 94.9688 778.65 96.1348C778.65 96.6445 778.82 97.043 779.16 97.3301C779.5 97.6172 779.937 97.7607 780.47 97.7607ZM788.854 99H787.229V85.5H788.854V99ZM794.119 94.5967L793.1 95.6602V99H791.474V85.5H793.1V93.665L793.97 92.6191L796.932 89.4902H798.909L795.209 93.4629L799.34 99H797.433L794.119 94.5967ZM806.125 96.4775C806.125 96.0381 805.958 95.6982 805.624 95.458C805.296 95.2119 804.719 95.001 803.893 94.8252C803.072 94.6494 802.419 94.4385 801.933 94.1924C801.452 93.9463 801.095 93.6533 800.86 93.3135C800.632 92.9736 800.518 92.5693 800.518 92.1006C800.518 91.3213 800.846 90.6621 801.502 90.123C802.164 89.584 803.008 89.3145 804.033 89.3145C805.111 89.3145 805.984 89.5928 806.652 90.1494C807.326 90.7061 807.663 91.418 807.663 92.2852H806.028C806.028 91.8398 805.838 91.4561 805.457 91.1338C805.082 90.8115 804.607 90.6504 804.033 90.6504C803.441 90.6504 802.979 90.7793 802.645 91.0371C802.311 91.2949 802.144 91.6318 802.144 92.0479C802.144 92.4404 802.299 92.7363 802.609 92.9355C802.92 93.1348 803.479 93.3252 804.288 93.5068C805.103 93.6885 805.762 93.9053 806.266 94.1572C806.77 94.4092 807.142 94.7139 807.382 95.0713C807.628 95.4229 807.751 95.8535 807.751 96.3633C807.751 97.2129 807.411 97.8955 806.731 98.4111C806.052 98.9209 805.17 99.1758 804.086 99.1758C803.324 99.1758 802.65 99.041 802.064 98.7715C801.479 98.502 801.019 98.127 800.685 97.6465C800.356 97.1602 800.192 96.6357 800.192 96.0732H801.818C801.848 96.6182 802.064 97.0518 802.469 97.374C802.879 97.6904 803.418 97.8486 804.086 97.8486C804.701 97.8486 805.193 97.7256 805.562 97.4795C805.938 97.2275 806.125 96.8936 806.125 96.4775Z" fill="black"/>
    <g filter="url(#filter2_d)">
        <rect x="38" width="341" height="195" fill="white"/>
    </g>
    <g filter="url(#filter3_d)">
        <rect x="518" y="18" width="341" height="195" fill="white"/>
    </g>
    <path d="M310.807 33.7773L305.802 45H304.191L309.18 34.1758H302.639V32.9141H310.807V33.7773ZM325.184 34.2256H321.299V45H319.714V34.2256H315.837V32.9141H325.184V34.2256ZM331.335 45C331.246 44.8229 331.174 44.5075 331.119 44.0537C330.405 44.7952 329.553 45.166 328.562 45.166C327.677 45.166 326.949 44.917 326.379 44.4189C325.815 43.9154 325.533 43.279 325.533 42.5098C325.533 41.5745 325.887 40.8496 326.595 40.335C327.309 39.8148 328.311 39.5547 329.6 39.5547H331.094V38.8491C331.094 38.3123 330.934 37.8862 330.613 37.5708C330.292 37.2498 329.819 37.0894 329.193 37.0894C328.646 37.0894 328.186 37.2277 327.815 37.5044C327.445 37.7811 327.259 38.1159 327.259 38.5088H325.715C325.715 38.0605 325.873 37.6289 326.188 37.2139C326.509 36.7933 326.941 36.4613 327.483 36.2178C328.031 35.9743 328.632 35.8525 329.285 35.8525C330.319 35.8525 331.13 36.1126 331.717 36.6328C332.303 37.1475 332.608 37.8586 332.63 38.7661V42.8999C332.63 43.7244 332.735 44.3802 332.945 44.8672V45H331.335ZM328.787 43.8296C329.268 43.8296 329.725 43.7051 330.156 43.4561C330.588 43.207 330.901 42.8833 331.094 42.4849V40.6421H329.891C328.009 40.6421 327.068 41.1927 327.068 42.2939C327.068 42.7754 327.229 43.1517 327.55 43.4229C327.871 43.694 328.283 43.8296 328.787 43.8296ZM336.706 45H335.17V32.25H336.706V45ZM341.678 40.8413L340.715 41.8457V45H339.179V32.25H340.715V39.9614L341.537 38.9736L344.334 36.0186H346.202L342.707 39.7705L346.608 45H344.807L341.678 40.8413ZM353.017 42.6177C353.017 42.2026 352.859 41.8817 352.543 41.6548C352.234 41.4224 351.688 41.2231 350.908 41.0571C350.133 40.8911 349.516 40.6919 349.057 40.4595C348.603 40.2271 348.266 39.9504 348.044 39.6294C347.829 39.3084 347.721 38.9266 347.721 38.4839C347.721 37.7479 348.031 37.1253 348.65 36.6162C349.276 36.1071 350.073 35.8525 351.041 35.8525C352.059 35.8525 352.884 36.1154 353.515 36.6411C354.151 37.1668 354.469 37.8392 354.469 38.6582H352.925C352.925 38.2376 352.745 37.8752 352.386 37.5708C352.032 37.2664 351.583 37.1143 351.041 37.1143C350.482 37.1143 350.045 37.236 349.729 37.4795C349.414 37.723 349.256 38.0412 349.256 38.4341C349.256 38.8049 349.403 39.0843 349.696 39.2725C349.99 39.4606 350.518 39.6405 351.282 39.812C352.051 39.9836 352.674 40.1883 353.149 40.4263C353.625 40.6642 353.977 40.952 354.204 41.2896C354.436 41.6216 354.552 42.0283 354.552 42.5098C354.552 43.3122 354.231 43.9569 353.589 44.4438C352.947 44.9253 352.115 45.166 351.091 45.166C350.371 45.166 349.735 45.0387 349.182 44.7842C348.628 44.5296 348.194 44.1755 347.878 43.7217C347.569 43.2624 347.414 42.7671 347.414 42.2358H348.949C348.977 42.7505 349.182 43.16 349.563 43.4644C349.951 43.7632 350.46 43.9126 351.091 43.9126C351.672 43.9126 352.137 43.7964 352.485 43.564C352.84 43.326 353.017 43.0106 353.017 42.6177Z" fill="#FF21C1"/>
    <path d="M789.487 62.9409H791.164V64.1943H789.487V67H787.943V64.1943H782.44V63.2896L787.852 54.9141H789.487V62.9409ZM784.183 62.9409H787.943V57.0142L787.761 57.3462L784.183 62.9409ZM805.184 56.2256H801.299V67H799.714V56.2256H795.837V54.9141H805.184V56.2256ZM811.335 67C811.246 66.8229 811.174 66.5075 811.119 66.0537C810.405 66.7952 809.553 67.166 808.562 67.166C807.677 67.166 806.949 66.917 806.379 66.4189C805.815 65.9154 805.533 65.279 805.533 64.5098C805.533 63.5745 805.887 62.8496 806.595 62.335C807.309 61.8148 808.311 61.5547 809.6 61.5547H811.094V60.8491C811.094 60.3123 810.934 59.8862 810.613 59.5708C810.292 59.2498 809.819 59.0894 809.193 59.0894C808.646 59.0894 808.186 59.2277 807.815 59.5044C807.445 59.7811 807.259 60.1159 807.259 60.5088H805.715C805.715 60.0605 805.873 59.6289 806.188 59.2139C806.509 58.7933 806.941 58.4613 807.483 58.2178C808.031 57.9743 808.632 57.8525 809.285 57.8525C810.319 57.8525 811.13 58.1126 811.717 58.6328C812.303 59.1475 812.608 59.8586 812.63 60.7661V64.8999C812.63 65.7244 812.735 66.3802 812.945 66.8672V67H811.335ZM808.787 65.8296C809.268 65.8296 809.725 65.7051 810.156 65.4561C810.588 65.207 810.901 64.8833 811.094 64.4849V62.6421H809.891C808.009 62.6421 807.068 63.1927 807.068 64.2939C807.068 64.7754 807.229 65.1517 807.55 65.4229C807.871 65.694 808.283 65.8296 808.787 65.8296ZM816.706 67H815.17V54.25H816.706V67ZM821.678 62.8413L820.715 63.8457V67H819.179V54.25H820.715V61.9614L821.537 60.9736L824.334 58.0186H826.202L822.707 61.7705L826.608 67H824.807L821.678 62.8413ZM833.017 64.6177C833.017 64.2026 832.859 63.8817 832.543 63.6548C832.234 63.4224 831.688 63.2231 830.908 63.0571C830.133 62.8911 829.516 62.6919 829.057 62.4595C828.603 62.2271 828.266 61.9504 828.044 61.6294C827.829 61.3084 827.721 60.9266 827.721 60.4839C827.721 59.7479 828.031 59.1253 828.65 58.6162C829.276 58.1071 830.073 57.8525 831.041 57.8525C832.059 57.8525 832.884 58.1154 833.515 58.6411C834.151 59.1668 834.469 59.8392 834.469 60.6582H832.925C832.925 60.2376 832.745 59.8752 832.386 59.5708C832.032 59.2664 831.583 59.1143 831.041 59.1143C830.482 59.1143 830.045 59.236 829.729 59.4795C829.414 59.723 829.256 60.0412 829.256 60.4341C829.256 60.8049 829.403 61.0843 829.696 61.2725C829.99 61.4606 830.518 61.6405 831.282 61.812C832.051 61.9836 832.674 62.1883 833.149 62.4263C833.625 62.6642 833.977 62.952 834.204 63.2896C834.436 63.6216 834.552 64.0283 834.552 64.5098C834.552 65.3122 834.231 65.9569 833.589 66.4438C832.947 66.9253 832.115 67.166 831.091 67.166C830.371 67.166 829.735 67.0387 829.182 66.7842C828.628 66.5296 828.194 66.1755 827.878 65.7217C827.569 65.2624 827.414 64.7671 827.414 64.2358H828.949C828.977 64.7505 829.182 65.16 829.563 65.4644C829.951 65.7632 830.46 65.9126 831.091 65.9126C831.672 65.9126 832.137 65.7964 832.485 65.564C832.84 65.326 833.017 65.0106 833.017 64.6177Z" fill="#FF21C1"/>
    <path d="M61.8979 43V26.6484H66.5137C67.9362 26.6484 69.194 26.9629 70.2871 27.5918C71.3802 28.2207 72.2225 29.1154 72.814 30.2759C73.4129 31.4364 73.7161 32.769 73.7236 34.2739V35.3184C73.7236 36.8607 73.4242 38.2121 72.8252 39.3726C72.2337 40.533 71.384 41.424 70.2759 42.0454C69.1753 42.6668 67.8913 42.985 66.4238 43H61.8979ZM64.0542 28.4229V41.2368H66.3228C67.9849 41.2368 69.2764 40.7202 70.1973 39.687C71.1257 38.6538 71.5898 37.1826 71.5898 35.2734V34.3188C71.5898 32.4621 71.1519 31.0208 70.2759 29.9951C69.4074 28.9619 68.172 28.4378 66.5698 28.4229H64.0542ZM81.7085 43.2246C80.0614 43.2246 78.7212 42.6855 77.688 41.6074C76.6548 40.5218 76.1382 39.0731 76.1382 37.2612V36.8794C76.1382 35.674 76.3665 34.5996 76.8232 33.6562C77.2874 32.7054 77.9313 31.9642 78.7549 31.4326C79.5859 30.8936 80.4844 30.624 81.4502 30.624C83.0299 30.624 84.2578 31.1444 85.1338 32.1851C86.0098 33.2257 86.4478 34.7157 86.4478 36.6548V37.5195H78.2158C78.2458 38.7174 78.5939 39.687 79.2603 40.4282C79.9341 41.1619 80.7876 41.5288 81.8208 41.5288C82.5545 41.5288 83.1759 41.3791 83.6851 41.0796C84.1942 40.7801 84.6396 40.3833 85.0215 39.8892L86.2905 40.8774C85.2723 42.4422 83.745 43.2246 81.7085 43.2246ZM81.4502 32.3311C80.6117 32.3311 79.9079 32.638 79.3389 33.252C78.7699 33.8584 78.418 34.7119 78.2832 35.8125H84.3701V35.6553C84.3102 34.5996 84.0257 33.7835 83.5166 33.207C83.0075 32.623 82.3187 32.3311 81.4502 32.3311ZM95.9375 39.7769C95.9375 39.2153 95.7241 38.7811 95.2974 38.4741C94.8781 38.1597 94.1406 37.8901 93.085 37.6655C92.0368 37.4409 91.202 37.1714 90.5806 36.8569C89.9666 36.5425 89.5099 36.1681 89.2104 35.7339C88.9185 35.2996 88.7725 34.783 88.7725 34.1841C88.7725 33.1883 89.1917 32.346 90.0303 31.6572C90.8763 30.9684 91.9544 30.624 93.2646 30.624C94.6423 30.624 95.7578 30.9797 96.6113 31.6909C97.4723 32.4022 97.9028 33.3118 97.9028 34.4199H95.814C95.814 33.8509 95.5706 33.3605 95.084 32.9487C94.6048 32.5369 93.9984 32.3311 93.2646 32.3311C92.5085 32.3311 91.917 32.4958 91.4902 32.8252C91.0635 33.1546 90.8501 33.5851 90.8501 34.1167C90.8501 34.6183 91.0485 34.9964 91.4453 35.251C91.8421 35.5055 92.5571 35.7489 93.5903 35.981C94.631 36.2131 95.4733 36.4901 96.1172 36.812C96.7611 37.134 97.2365 37.5233 97.5435 37.98C97.8579 38.4292 98.0151 38.9795 98.0151 39.6309C98.0151 40.7165 97.5809 41.5887 96.7124 42.2476C95.8439 42.8989 94.7171 43.2246 93.332 43.2246C92.3587 43.2246 91.4977 43.0524 90.749 42.708C90.0003 42.3636 89.4126 41.8844 88.9858 41.2705C88.5666 40.6491 88.3569 39.979 88.3569 39.2603H90.4346C90.472 39.9565 90.749 40.5106 91.2656 40.9224C91.7897 41.3267 92.4785 41.5288 93.332 41.5288C94.1182 41.5288 94.7471 41.3716 95.2188 41.0571C95.6979 40.7352 95.9375 40.3084 95.9375 39.7769ZM102.979 43H100.901V30.8486H102.979V43ZM100.733 27.6255C100.733 27.2886 100.834 27.0041 101.036 26.772C101.246 26.5399 101.553 26.4238 101.957 26.4238C102.361 26.4238 102.668 26.5399 102.878 26.772C103.088 27.0041 103.192 27.2886 103.192 27.6255C103.192 27.9624 103.088 28.2432 102.878 28.4678C102.668 28.6924 102.361 28.8047 101.957 28.8047C101.553 28.8047 101.246 28.6924 101.036 28.4678C100.834 28.2432 100.733 27.9624 100.733 27.6255ZM105.82 36.8232C105.82 34.929 106.258 33.4242 107.134 32.3086C108.01 31.1855 109.171 30.624 110.616 30.624C112.098 30.624 113.255 31.1481 114.086 32.1963L114.187 30.8486H116.085V42.708C116.085 44.2803 115.617 45.5194 114.681 46.4253C113.753 47.3312 112.502 47.7842 110.93 47.7842C110.054 47.7842 109.197 47.597 108.358 47.2227C107.52 46.8483 106.88 46.3354 106.438 45.6841L107.516 44.4375C108.407 45.5381 109.496 46.0884 110.784 46.0884C111.795 46.0884 112.581 45.8039 113.143 45.2349C113.712 44.6659 113.996 43.8647 113.996 42.8315V41.7871C113.165 42.7454 112.031 43.2246 110.593 43.2246C109.171 43.2246 108.018 42.6519 107.134 41.5063C106.258 40.3608 105.82 38.7998 105.82 36.8232ZM107.909 37.0591C107.909 38.4292 108.19 39.5073 108.751 40.2935C109.313 41.0721 110.099 41.4614 111.11 41.4614C112.42 41.4614 113.382 40.8662 113.996 39.6758V34.1279C113.36 32.9674 112.405 32.3872 111.132 32.3872C110.122 32.3872 109.332 32.7803 108.763 33.5664C108.194 34.3525 107.909 35.5168 107.909 37.0591ZM121.195 30.8486L121.262 32.376C122.191 31.208 123.403 30.624 124.901 30.624C127.469 30.624 128.764 32.0728 128.787 34.9702V43H126.709V34.959C126.701 34.083 126.499 33.4354 126.103 33.0161C125.713 32.5968 125.103 32.3872 124.272 32.3872C123.598 32.3872 123.007 32.5669 122.498 32.9263C121.988 33.2856 121.592 33.7573 121.307 34.3413V43H119.229V30.8486H121.195ZM148.799 28.4229H143.543V43H141.398V28.4229H136.154V26.6484H148.799V28.4229ZM155.919 32.7129C155.605 32.6605 155.264 32.6343 154.897 32.6343C153.535 32.6343 152.61 33.2145 152.124 34.375V43H150.046V30.8486H152.067L152.101 32.2524C152.782 31.1668 153.748 30.624 154.999 30.624C155.403 30.624 155.71 30.6764 155.919 30.7812V32.7129ZM164.893 43C164.773 42.7604 164.675 42.3337 164.601 41.7197C163.635 42.723 162.482 43.2246 161.142 43.2246C159.944 43.2246 158.959 42.8877 158.188 42.2139C157.424 41.5326 157.042 40.6715 157.042 39.6309C157.042 38.3656 157.522 37.3848 158.48 36.6885C159.446 35.9847 160.801 35.6328 162.545 35.6328H164.567V34.6782C164.567 33.952 164.35 33.3755 163.916 32.9487C163.481 32.5145 162.841 32.2974 161.995 32.2974C161.254 32.2974 160.632 32.4845 160.131 32.8589C159.629 33.2332 159.378 33.6862 159.378 34.2178H157.29C157.29 33.6113 157.503 33.0273 157.93 32.4658C158.364 31.8968 158.948 31.4476 159.682 31.1182C160.423 30.7887 161.235 30.624 162.119 30.624C163.519 30.624 164.616 30.9759 165.409 31.6797C166.203 32.376 166.615 33.3381 166.645 34.5659V40.1587C166.645 41.2743 166.787 42.1615 167.071 42.8203V43H164.893ZM161.445 41.4165C162.096 41.4165 162.714 41.248 163.298 40.9111C163.882 40.5742 164.305 40.1362 164.567 39.5972V37.104H162.938C160.393 37.104 159.12 37.849 159.12 39.3389C159.12 39.9902 159.337 40.4993 159.771 40.8662C160.206 41.2331 160.764 41.4165 161.445 41.4165ZM174.775 41.5288C175.517 41.5288 176.164 41.3042 176.718 40.855C177.272 40.4058 177.579 39.8442 177.639 39.1704H179.604C179.567 39.8667 179.327 40.5293 178.886 41.1582C178.444 41.7871 177.853 42.2887 177.111 42.6631C176.378 43.0374 175.599 43.2246 174.775 43.2246C173.121 43.2246 171.803 42.6743 170.822 41.5737C169.849 40.4657 169.362 38.9533 169.362 37.0366V36.6885C169.362 35.5055 169.579 34.4536 170.014 33.5327C170.448 32.6118 171.069 31.8968 171.878 31.3877C172.694 30.8786 173.656 30.624 174.764 30.624C176.127 30.624 177.257 31.0321 178.156 31.8481C179.062 32.6642 179.545 33.7236 179.604 35.0264H177.639C177.579 34.2402 177.28 33.5964 176.741 33.0947C176.209 32.5856 175.55 32.3311 174.764 32.3311C173.708 32.3311 172.889 32.7129 172.305 33.4766C171.728 34.2327 171.44 35.3296 171.44 36.7671V37.1602C171.44 38.5602 171.728 39.6383 172.305 40.3945C172.881 41.1507 173.705 41.5288 174.775 41.5288ZM185.332 37.3735L184.029 38.7324V43H181.952V25.75H184.029V36.1831L185.141 34.8467L188.926 30.8486H191.453L186.725 35.9248L192.003 43H189.566L185.332 37.3735Z" fill="#401364"/>
    <path d="M541.898 61V44.6484H546.514C547.936 44.6484 549.194 44.9629 550.287 45.5918C551.38 46.2207 552.222 47.1154 552.814 48.2759C553.413 49.4364 553.716 50.769 553.724 52.2739V53.3184C553.724 54.8607 553.424 56.2121 552.825 57.3726C552.234 58.533 551.384 59.424 550.276 60.0454C549.175 60.6668 547.891 60.985 546.424 61H541.898ZM544.054 46.4229V59.2368H546.323C547.985 59.2368 549.276 58.7202 550.197 57.687C551.126 56.6538 551.59 55.1826 551.59 53.2734V52.3188C551.59 50.4621 551.152 49.0208 550.276 47.9951C549.407 46.9619 548.172 46.4378 546.57 46.4229H544.054ZM561.708 61.2246C560.061 61.2246 558.721 60.6855 557.688 59.6074C556.655 58.5218 556.138 57.0731 556.138 55.2612V54.8794C556.138 53.674 556.367 52.5996 556.823 51.6562C557.287 50.7054 557.931 49.9642 558.755 49.4326C559.586 48.8936 560.484 48.624 561.45 48.624C563.03 48.624 564.258 49.1444 565.134 50.1851C566.01 51.2257 566.448 52.7157 566.448 54.6548V55.5195H558.216C558.246 56.7174 558.594 57.687 559.26 58.4282C559.934 59.1619 560.788 59.5288 561.821 59.5288C562.555 59.5288 563.176 59.3791 563.685 59.0796C564.194 58.7801 564.64 58.3833 565.021 57.8892L566.291 58.8774C565.272 60.4422 563.745 61.2246 561.708 61.2246ZM561.45 50.3311C560.612 50.3311 559.908 50.638 559.339 51.252C558.77 51.8584 558.418 52.7119 558.283 53.8125H564.37V53.6553C564.31 52.5996 564.026 51.7835 563.517 51.207C563.007 50.623 562.319 50.3311 561.45 50.3311ZM572.714 58.1812L575.724 48.8486H577.847L573.489 61H571.906L567.503 48.8486H569.626L572.714 58.1812ZM592.75 53.3521C592.75 54.9543 592.48 56.3543 591.941 57.5522C591.402 58.7427 590.638 59.6523 589.65 60.2812C588.662 60.9102 587.509 61.2246 586.191 61.2246C584.903 61.2246 583.761 60.9102 582.766 60.2812C581.77 59.6449 580.995 58.7427 580.441 57.5747C579.894 56.3993 579.614 55.0404 579.599 53.498V52.3188C579.599 50.7466 579.872 49.3577 580.418 48.1523C580.965 46.9469 581.736 46.026 582.732 45.3896C583.735 44.7458 584.881 44.4238 586.168 44.4238C587.479 44.4238 588.632 44.742 589.627 45.3784C590.631 46.0073 591.402 46.9245 591.941 48.1299C592.48 49.3278 592.75 50.7241 592.75 52.3188V53.3521ZM590.604 52.2964C590.604 50.3573 590.215 48.8711 589.437 47.8379C588.658 46.7972 587.569 46.2769 586.168 46.2769C584.806 46.2769 583.731 46.7972 582.945 47.8379C582.167 48.8711 581.766 50.3086 581.744 52.1504V53.3521C581.744 55.2313 582.137 56.71 582.923 57.7881C583.716 58.8587 584.806 59.394 586.191 59.394C587.583 59.394 588.662 58.8887 589.425 57.8779C590.189 56.8597 590.582 55.4035 590.604 53.5093V52.2964ZM605.923 55.0591C605.923 56.9084 605.5 58.3983 604.654 59.5288C603.808 60.6593 602.662 61.2246 601.217 61.2246C599.742 61.2246 598.582 60.7567 597.736 59.8208V65.6719H595.658V48.8486H597.556L597.657 50.1963C598.503 49.1481 599.679 48.624 601.184 48.624C602.644 48.624 603.797 49.1743 604.643 50.2749C605.496 51.3755 605.923 52.9066 605.923 54.8682V55.0591ZM603.845 54.8232C603.845 53.4531 603.553 52.3713 602.969 51.5776C602.385 50.784 601.584 50.3872 600.566 50.3872C599.308 50.3872 598.365 50.945 597.736 52.0605V57.8667C598.357 58.9748 599.308 59.5288 600.588 59.5288C601.584 59.5288 602.374 59.1357 602.958 58.3496C603.549 57.556 603.845 56.3805 603.845 54.8232ZM615.648 57.7769C615.648 57.2153 615.435 56.7811 615.008 56.4741C614.589 56.1597 613.852 55.8901 612.796 55.6655C611.748 55.4409 610.913 55.1714 610.292 54.8569C609.678 54.5425 609.221 54.1681 608.921 53.7339C608.629 53.2996 608.483 52.783 608.483 52.1841C608.483 51.1883 608.903 50.346 609.741 49.6572C610.587 48.9684 611.665 48.624 612.976 48.624C614.353 48.624 615.469 48.9797 616.322 49.6909C617.183 50.4022 617.614 51.3118 617.614 52.4199H615.525C615.525 51.8509 615.282 51.3605 614.795 50.9487C614.316 50.5369 613.709 50.3311 612.976 50.3311C612.219 50.3311 611.628 50.4958 611.201 50.8252C610.774 51.1546 610.561 51.5851 610.561 52.1167C610.561 52.6183 610.759 52.9964 611.156 53.251C611.553 53.5055 612.268 53.7489 613.301 53.981C614.342 54.2131 615.184 54.4901 615.828 54.812C616.472 55.134 616.947 55.5233 617.254 55.98C617.569 56.4292 617.726 56.9795 617.726 57.6309C617.726 58.7165 617.292 59.5887 616.423 60.2476C615.555 60.8989 614.428 61.2246 613.043 61.2246C612.07 61.2246 611.209 61.0524 610.46 60.708C609.711 60.3636 609.124 59.8844 608.697 59.2705C608.278 58.6491 608.068 57.979 608.068 57.2603H610.146C610.183 57.9565 610.46 58.5106 610.977 58.9224C611.501 59.3267 612.189 59.5288 613.043 59.5288C613.829 59.5288 614.458 59.3716 614.93 59.0571C615.409 58.7352 615.648 58.3084 615.648 57.7769ZM637.312 46.4229H632.056V61H629.911V46.4229H624.667V44.6484H637.312V46.4229ZM644.432 50.7129C644.118 50.6605 643.777 50.6343 643.41 50.6343C642.048 50.6343 641.123 51.2145 640.636 52.375V61H638.559V48.8486H640.58L640.614 50.2524C641.295 49.1668 642.261 48.624 643.511 48.624C643.916 48.624 644.222 48.6764 644.432 48.7812V50.7129ZM653.405 61C653.285 60.7604 653.188 60.3337 653.113 59.7197C652.147 60.723 650.994 61.2246 649.654 61.2246C648.456 61.2246 647.472 60.8877 646.701 60.2139C645.937 59.5326 645.555 58.6715 645.555 57.6309C645.555 56.3656 646.034 55.3848 646.993 54.6885C647.958 53.9847 649.314 53.6328 651.058 53.6328H653.08V52.6782C653.08 51.952 652.862 51.3755 652.428 50.9487C651.994 50.5145 651.354 50.2974 650.508 50.2974C649.767 50.2974 649.145 50.4845 648.644 50.8589C648.142 51.2332 647.891 51.6862 647.891 52.2178H645.802C645.802 51.6113 646.016 51.0273 646.442 50.4658C646.877 49.8968 647.461 49.4476 648.194 49.1182C648.936 48.7887 649.748 48.624 650.631 48.624C652.031 48.624 653.128 48.9759 653.922 49.6797C654.715 50.376 655.127 51.3381 655.157 52.5659V58.1587C655.157 59.2743 655.299 60.1615 655.584 60.8203V61H653.405ZM649.958 59.4165C650.609 59.4165 651.227 59.248 651.811 58.9111C652.395 58.5742 652.818 58.1362 653.08 57.5972V55.104H651.451C648.906 55.104 647.633 55.849 647.633 57.3389C647.633 57.9902 647.85 58.4993 648.284 58.8662C648.718 59.2331 649.276 59.4165 649.958 59.4165ZM663.288 59.5288C664.029 59.5288 664.677 59.3042 665.231 58.855C665.785 58.4058 666.092 57.8442 666.152 57.1704H668.117C668.08 57.8667 667.84 58.5293 667.398 59.1582C666.957 59.7871 666.365 60.2887 665.624 60.6631C664.89 61.0374 664.112 61.2246 663.288 61.2246C661.633 61.2246 660.316 60.6743 659.335 59.5737C658.362 58.4657 657.875 56.9533 657.875 55.0366V54.6885C657.875 53.5055 658.092 52.4536 658.526 51.5327C658.961 50.6118 659.582 49.8968 660.391 49.3877C661.207 48.8786 662.169 48.624 663.277 48.624C664.639 48.624 665.77 49.0321 666.668 49.8481C667.574 50.6642 668.057 51.7236 668.117 53.0264H666.152C666.092 52.2402 665.792 51.5964 665.253 51.0947C664.722 50.5856 664.063 50.3311 663.277 50.3311C662.221 50.3311 661.401 50.7129 660.817 51.4766C660.241 52.2327 659.953 53.3296 659.953 54.7671V55.1602C659.953 56.5602 660.241 57.6383 660.817 58.3945C661.394 59.1507 662.217 59.5288 663.288 59.5288ZM673.845 55.3735L672.542 56.7324V61H670.464V43.75H672.542V54.1831L673.654 52.8467L677.438 48.8486H679.965L675.237 53.9248L680.516 61H678.079L673.845 55.3735Z" fill="#401364"/>
    <path d="M66.4072 171H64.7725V160.163L61.4941 161.367V159.891L66.1523 158.142H66.4072V171ZM79.1953 165.542C79.1953 167.446 78.8701 168.861 78.2197 169.787C77.5693 170.713 76.5527 171.176 75.1699 171.176C73.8047 171.176 72.7939 170.725 72.1377 169.822C71.4814 168.914 71.1416 167.561 71.1182 165.762V163.591C71.1182 161.71 71.4434 160.312 72.0938 159.398C72.7441 158.484 73.7637 158.027 75.1523 158.027C76.5293 158.027 77.543 158.47 78.1934 159.354C78.8438 160.233 79.1777 161.593 79.1953 163.433V165.542ZM77.5693 163.318C77.5693 161.941 77.376 160.939 76.9893 160.312C76.6025 159.68 75.9902 159.363 75.1523 159.363C74.3203 159.363 73.7139 159.677 73.333 160.304C72.9521 160.931 72.7559 161.895 72.7441 163.195V165.797C72.7441 167.18 72.9434 168.202 73.3418 168.864C73.7461 169.521 74.3555 169.849 75.1699 169.849C75.9727 169.849 76.5674 169.538 76.9541 168.917C77.3467 168.296 77.5518 167.317 77.5693 165.981V163.318ZM85.8574 170.147C85.8574 169.866 85.9395 169.632 86.1035 169.444C86.2734 169.257 86.5254 169.163 86.8594 169.163C87.1934 169.163 87.4453 169.257 87.6152 169.444C87.791 169.632 87.8789 169.866 87.8789 170.147C87.8789 170.417 87.791 170.643 87.6152 170.824C87.4453 171.006 87.1934 171.097 86.8594 171.097C86.5254 171.097 86.2734 171.006 86.1035 170.824C85.9395 170.643 85.8574 170.417 85.8574 170.147ZM85.8662 162.387C85.8662 162.105 85.9482 161.871 86.1123 161.684C86.2822 161.496 86.5342 161.402 86.8682 161.402C87.2021 161.402 87.4541 161.496 87.624 161.684C87.7998 161.871 87.8877 162.105 87.8877 162.387C87.8877 162.656 87.7998 162.882 87.624 163.063C87.4541 163.245 87.2021 163.336 86.8682 163.336C86.5342 163.336 86.2822 163.245 86.1123 163.063C85.9482 162.882 85.8662 162.656 85.8662 162.387ZM102.592 165.542C102.592 167.446 102.267 168.861 101.616 169.787C100.966 170.713 99.9492 171.176 98.5664 171.176C97.2012 171.176 96.1904 170.725 95.5342 169.822C94.8779 168.914 94.5381 167.561 94.5146 165.762V163.591C94.5146 161.71 94.8398 160.312 95.4902 159.398C96.1406 158.484 97.1602 158.027 98.5488 158.027C99.9258 158.027 100.939 158.47 101.59 159.354C102.24 160.233 102.574 161.593 102.592 163.433V165.542ZM100.966 163.318C100.966 161.941 100.772 160.939 100.386 160.312C99.999 159.68 99.3867 159.363 98.5488 159.363C97.7168 159.363 97.1104 159.677 96.7295 160.304C96.3486 160.931 96.1523 161.895 96.1406 163.195V165.797C96.1406 167.18 96.3398 168.202 96.7383 168.864C97.1426 169.521 97.752 169.849 98.5664 169.849C99.3691 169.849 99.9639 169.538 100.351 168.917C100.743 168.296 100.948 167.317 100.966 165.981V163.318ZM112.699 165.542C112.699 167.446 112.374 168.861 111.724 169.787C111.073 170.713 110.057 171.176 108.674 171.176C107.309 171.176 106.298 170.725 105.642 169.822C104.985 168.914 104.646 167.561 104.622 165.762V163.591C104.622 161.71 104.947 160.312 105.598 159.398C106.248 158.484 107.268 158.027 108.656 158.027C110.033 158.027 111.047 158.47 111.697 159.354C112.348 160.233 112.682 161.593 112.699 163.433V165.542ZM111.073 163.318C111.073 161.941 110.88 160.939 110.493 160.312C110.106 159.68 109.494 159.363 108.656 159.363C107.824 159.363 107.218 159.677 106.837 160.304C106.456 160.931 106.26 161.895 106.248 163.195V165.797C106.248 167.18 106.447 168.202 106.846 168.864C107.25 169.521 107.859 169.849 108.674 169.849C109.477 169.849 110.071 169.538 110.458 168.917C110.851 168.296 111.056 167.317 111.073 165.981V163.318ZM122.271 167.66H116.909L115.705 171H113.965L118.852 158.203H120.328L125.224 171H123.492L122.271 167.66ZM117.419 166.271H121.77L119.59 160.286L117.419 166.271ZM129.126 158.203L133.31 168.645L137.493 158.203H139.682V171H137.994V166.017L138.152 160.638L133.951 171H132.659L128.467 160.664L128.634 166.017V171H126.946V158.203H129.126ZM150.255 166.228H145.966V164.9H150.255V166.228ZM161.487 171H159.853V160.163L156.574 161.367V159.891L161.232 158.142H161.487V171ZM174.636 171H166.251V169.831L170.681 164.909C171.337 164.165 171.788 163.562 172.034 163.099C172.286 162.63 172.412 162.146 172.412 161.648C172.412 160.98 172.21 160.433 171.806 160.005C171.401 159.577 170.862 159.363 170.188 159.363C169.38 159.363 168.75 159.595 168.299 160.058C167.854 160.515 167.631 161.153 167.631 161.974H166.005C166.005 160.796 166.383 159.844 167.139 159.117C167.9 158.391 168.917 158.027 170.188 158.027C171.378 158.027 172.318 158.341 173.01 158.968C173.701 159.589 174.047 160.418 174.047 161.455C174.047 162.715 173.244 164.215 171.639 165.955L168.211 169.673H174.636V171ZM176.473 170.147C176.473 169.866 176.555 169.632 176.719 169.444C176.889 169.257 177.141 169.163 177.475 169.163C177.809 169.163 178.061 169.257 178.23 169.444C178.406 169.632 178.494 169.866 178.494 170.147C178.494 170.417 178.406 170.643 178.23 170.824C178.061 171.006 177.809 171.097 177.475 171.097C177.141 171.097 176.889 171.006 176.719 170.824C176.555 170.643 176.473 170.417 176.473 170.147ZM176.481 162.387C176.481 162.105 176.563 161.871 176.728 161.684C176.897 161.496 177.149 161.402 177.483 161.402C177.817 161.402 178.069 161.496 178.239 161.684C178.415 161.871 178.503 162.105 178.503 162.387C178.503 162.656 178.415 162.882 178.239 163.063C178.069 163.245 177.817 163.336 177.483 163.336C177.149 163.336 176.897 163.245 176.728 163.063C176.563 162.882 176.481 162.656 176.481 162.387ZM193.207 165.542C193.207 167.446 192.882 168.861 192.231 169.787C191.581 170.713 190.564 171.176 189.182 171.176C187.816 171.176 186.806 170.725 186.149 169.822C185.493 168.914 185.153 167.561 185.13 165.762V163.591C185.13 161.71 185.455 160.312 186.105 159.398C186.756 158.484 187.775 158.027 189.164 158.027C190.541 158.027 191.555 158.47 192.205 159.354C192.855 160.233 193.189 161.593 193.207 163.433V165.542ZM191.581 163.318C191.581 161.941 191.388 160.939 191.001 160.312C190.614 159.68 190.002 159.363 189.164 159.363C188.332 159.363 187.726 159.677 187.345 160.304C186.964 160.931 186.768 161.895 186.756 163.195V165.797C186.756 167.18 186.955 168.202 187.354 168.864C187.758 169.521 188.367 169.849 189.182 169.849C189.984 169.849 190.579 169.538 190.966 168.917C191.358 168.296 191.563 167.317 191.581 165.981V163.318ZM203.314 165.542C203.314 167.446 202.989 168.861 202.339 169.787C201.688 170.713 200.672 171.176 199.289 171.176C197.924 171.176 196.913 170.725 196.257 169.822C195.601 168.914 195.261 167.561 195.237 165.762V163.591C195.237 161.71 195.562 160.312 196.213 159.398C196.863 158.484 197.883 158.027 199.271 158.027C200.648 158.027 201.662 158.47 202.312 159.354C202.963 160.233 203.297 161.593 203.314 163.433V165.542ZM201.688 163.318C201.688 161.941 201.495 160.939 201.108 160.312C200.722 159.68 200.109 159.363 199.271 159.363C198.439 159.363 197.833 159.677 197.452 160.304C197.071 160.931 196.875 161.895 196.863 163.195V165.797C196.863 167.18 197.062 168.202 197.461 168.864C197.865 169.521 198.475 169.849 199.289 169.849C200.092 169.849 200.687 169.538 201.073 168.917C201.466 168.296 201.671 167.317 201.688 165.981V163.318ZM212.886 167.66H207.524L206.32 171H204.58L209.467 158.203H210.943L215.839 171H214.107L212.886 167.66ZM208.034 166.271H212.385L210.205 160.286L208.034 166.271ZM219.741 158.203L223.925 168.645L228.108 158.203H230.297V171H228.609V166.017L228.768 160.638L224.566 171H223.274L219.082 160.664L219.249 166.017V171H217.562V158.203H219.741Z" fill="black"/>
    <path d="M546.407 189H544.772V178.163L541.494 179.367V177.891L546.152 176.142H546.407V189ZM555.75 188.147C555.75 187.866 555.832 187.632 555.996 187.444C556.166 187.257 556.418 187.163 556.752 187.163C557.086 187.163 557.338 187.257 557.508 187.444C557.684 187.632 557.771 187.866 557.771 188.147C557.771 188.417 557.684 188.643 557.508 188.824C557.338 189.006 557.086 189.097 556.752 189.097C556.418 189.097 556.166 189.006 555.996 188.824C555.832 188.643 555.75 188.417 555.75 188.147ZM555.759 180.387C555.759 180.105 555.841 179.871 556.005 179.684C556.175 179.496 556.427 179.402 556.761 179.402C557.095 179.402 557.347 179.496 557.517 179.684C557.692 179.871 557.78 180.105 557.78 180.387C557.78 180.656 557.692 180.882 557.517 181.063C557.347 181.245 557.095 181.336 556.761 181.336C556.427 181.336 556.175 181.245 556.005 181.063C555.841 180.882 555.759 180.656 555.759 180.387ZM572.484 183.542C572.484 185.446 572.159 186.861 571.509 187.787C570.858 188.713 569.842 189.176 568.459 189.176C567.094 189.176 566.083 188.725 565.427 187.822C564.771 186.914 564.431 185.561 564.407 183.762V181.591C564.407 179.71 564.732 178.312 565.383 177.398C566.033 176.484 567.053 176.027 568.441 176.027C569.818 176.027 570.832 176.47 571.482 177.354C572.133 178.233 572.467 179.593 572.484 181.433V183.542ZM570.858 181.318C570.858 179.941 570.665 178.939 570.278 178.312C569.892 177.68 569.279 177.363 568.441 177.363C567.609 177.363 567.003 177.677 566.622 178.304C566.241 178.931 566.045 179.895 566.033 181.195V183.797C566.033 185.18 566.232 186.202 566.631 186.864C567.035 187.521 567.645 187.849 568.459 187.849C569.262 187.849 569.856 187.538 570.243 186.917C570.636 186.296 570.841 185.317 570.858 183.981V181.318ZM582.592 183.542C582.592 185.446 582.267 186.861 581.616 187.787C580.966 188.713 579.949 189.176 578.566 189.176C577.201 189.176 576.19 188.725 575.534 187.822C574.878 186.914 574.538 185.561 574.515 183.762V181.591C574.515 179.71 574.84 178.312 575.49 177.398C576.141 176.484 577.16 176.027 578.549 176.027C579.926 176.027 580.939 176.47 581.59 177.354C582.24 178.233 582.574 179.593 582.592 181.433V183.542ZM580.966 181.318C580.966 179.941 580.772 178.939 580.386 178.312C579.999 177.68 579.387 177.363 578.549 177.363C577.717 177.363 577.11 177.677 576.729 178.304C576.349 178.931 576.152 179.895 576.141 181.195V183.797C576.141 185.18 576.34 186.202 576.738 186.864C577.143 187.521 577.752 187.849 578.566 187.849C579.369 187.849 579.964 187.538 580.351 186.917C580.743 186.296 580.948 185.317 580.966 183.981V181.318ZM586.784 183.99V189H585.097V176.203H589.816C591.217 176.203 592.312 176.561 593.104 177.275C593.9 177.99 594.299 178.937 594.299 180.114C594.299 181.356 593.909 182.314 593.13 182.988C592.356 183.656 591.246 183.99 589.799 183.99H586.784ZM586.784 182.61H589.816C590.719 182.61 591.41 182.399 591.891 181.978C592.371 181.55 592.611 180.935 592.611 180.132C592.611 179.37 592.371 178.761 591.891 178.304C591.41 177.847 590.751 177.609 589.913 177.592H586.784V182.61ZM598.632 176.203L602.815 186.645L606.999 176.203H609.188V189H607.5V184.017L607.658 178.638L603.457 189H602.165L597.973 178.664L598.14 184.017V189H596.452V176.203H598.632ZM619.761 184.228H615.472V182.9H619.761V184.228ZM634.034 189H625.649V187.831L630.079 182.909C630.735 182.165 631.187 181.562 631.433 181.099C631.685 180.63 631.811 180.146 631.811 179.648C631.811 178.98 631.608 178.433 631.204 178.005C630.8 177.577 630.261 177.363 629.587 177.363C628.778 177.363 628.148 177.595 627.697 178.058C627.252 178.515 627.029 179.153 627.029 179.974H625.403C625.403 178.796 625.781 177.844 626.537 177.117C627.299 176.391 628.315 176.027 629.587 176.027C630.776 176.027 631.717 176.341 632.408 176.968C633.1 177.589 633.445 178.418 633.445 179.455C633.445 180.715 632.643 182.215 631.037 183.955L627.609 187.673H634.034V189ZM635.871 188.147C635.871 187.866 635.953 187.632 636.117 187.444C636.287 187.257 636.539 187.163 636.873 187.163C637.207 187.163 637.459 187.257 637.629 187.444C637.805 187.632 637.893 187.866 637.893 188.147C637.893 188.417 637.805 188.643 637.629 188.824C637.459 189.006 637.207 189.097 636.873 189.097C636.539 189.097 636.287 189.006 636.117 188.824C635.953 188.643 635.871 188.417 635.871 188.147ZM635.88 180.387C635.88 180.105 635.962 179.871 636.126 179.684C636.296 179.496 636.548 179.402 636.882 179.402C637.216 179.402 637.468 179.496 637.638 179.684C637.813 179.871 637.901 180.105 637.901 180.387C637.901 180.656 637.813 180.882 637.638 181.063C637.468 181.245 637.216 181.336 636.882 181.336C636.548 181.336 636.296 181.245 636.126 181.063C635.962 180.882 635.88 180.656 635.88 180.387ZM652.966 189H644.581V187.831L649.011 182.909C649.667 182.165 650.118 181.562 650.364 181.099C650.616 180.63 650.742 180.146 650.742 179.648C650.742 178.98 650.54 178.433 650.136 178.005C649.731 177.577 649.192 177.363 648.519 177.363C647.71 177.363 647.08 177.595 646.629 178.058C646.184 178.515 645.961 179.153 645.961 179.974H644.335C644.335 178.796 644.713 177.844 645.469 177.117C646.23 176.391 647.247 176.027 648.519 176.027C649.708 176.027 650.648 176.341 651.34 176.968C652.031 177.589 652.377 178.418 652.377 179.455C652.377 180.715 651.574 182.215 649.969 183.955L646.541 187.673H652.966V189ZM662.713 183.542C662.713 185.446 662.388 186.861 661.737 187.787C661.087 188.713 660.07 189.176 658.688 189.176C657.322 189.176 656.312 188.725 655.655 187.822C654.999 186.914 654.659 185.561 654.636 183.762V181.591C654.636 179.71 654.961 178.312 655.611 177.398C656.262 176.484 657.281 176.027 658.67 176.027C660.047 176.027 661.061 176.47 661.711 177.354C662.361 178.233 662.695 179.593 662.713 181.433V183.542ZM661.087 181.318C661.087 179.941 660.894 178.939 660.507 178.312C660.12 177.68 659.508 177.363 658.67 177.363C657.838 177.363 657.231 177.677 656.851 178.304C656.47 178.931 656.273 179.895 656.262 181.195V183.797C656.262 185.18 656.461 186.202 656.859 186.864C657.264 187.521 657.873 187.849 658.688 187.849C659.49 187.849 660.085 187.538 660.472 186.917C660.864 186.296 661.069 185.317 661.087 183.981V181.318ZM666.905 183.99V189H665.218V176.203H669.938C671.338 176.203 672.434 176.561 673.225 177.275C674.021 177.99 674.42 178.937 674.42 180.114C674.42 181.356 674.03 182.314 673.251 182.988C672.478 183.656 671.367 183.99 669.92 183.99H666.905ZM666.905 182.61H669.938C670.84 182.61 671.531 182.399 672.012 181.978C672.492 181.55 672.732 180.935 672.732 180.132C672.732 179.37 672.492 178.761 672.012 178.304C671.531 177.847 670.872 177.609 670.034 177.592H666.905V182.61ZM678.753 176.203L682.937 186.645L687.12 176.203H689.309V189H687.621V184.017L687.779 178.638L683.578 189H682.286L678.094 178.664L678.261 184.017V189H676.573V176.203H678.753Z" fill="black"/>
    <path d="M448.998 197.244C449.605 196.681 449.642 195.732 449.079 195.124L439.903 185.221C439.34 184.614 438.391 184.577 437.784 185.14C437.176 185.703 437.14 186.653 437.703 187.26L445.858 196.063L437.056 204.218C436.448 204.781 436.412 205.731 436.975 206.338C437.538 206.946 438.487 206.982 439.095 206.419L448.998 197.244ZM417.943 196.499L447.921 197.643L448.035 194.645L418.057 193.501L417.943 196.499Z" fill="#401364"/>
    <path d="M449.063 36.0587C449.647 35.4719 449.646 34.5221 449.059 33.9374L439.495 24.4088C438.909 23.8241 437.959 23.8258 437.374 24.4127C436.789 24.9995 436.791 25.9492 437.378 26.534L445.879 35.0038L437.409 43.5045C436.824 44.0914 436.826 45.0411 437.413 45.6258C437.999 46.2105 438.949 46.2088 439.534 45.622L449.063 36.0587ZM418.003 36.5544L448.003 36.5L447.997 33.5L417.997 33.5544L418.003 36.5544Z" fill="#401364"/>
    <defs>
        <filter id="filter0_d" x="0" y="44" width="360" height="195" filterUnits="userSpaceOnUse" color-interpolation-filters="sRGB">
            <feFlood flood-opacity="0" result="BackgroundImageFix"/>
            <feColorMatrix in="SourceAlpha" type="matrix" values="0 0 0 0 0 0 0 0 0 0 0 0 0 0 0 0 0 0 127 0"/>
            <feOffset dx="2" dy="5"/>
            <feGaussianBlur stdDeviation="5"/>
            <feColorMatrix type="matrix" values="0 0 0 0 0 0 0 0 0 0 0 0 0 0 0 0 0 0 0.25 0"/>
            <feBlend mode="normal" in2="BackgroundImageFix" result="effect1_dropShadow"/>
            <feBlend mode="normal" in="SourceGraphic" in2="effect1_dropShadow" result="shape"/>
        </filter>
        <filter id="filter1_d" x="480" y="62" width="360" height="195" filterUnits="userSpaceOnUse" color-interpolation-filters="sRGB">
            <feFlood flood-opacity="0" result="BackgroundImageFix"/>
            <feColorMatrix in="SourceAlpha" type="matrix" values="0 0 0 0 0 0 0 0 0 0 0 0 0 0 0 0 0 0 127 0"/>
            <feOffset dx="2" dy="5"/>
            <feGaussianBlur stdDeviation="5"/>
            <feColorMatrix type="matrix" values="0 0 0 0 0 0 0 0 0 0 0 0 0 0 0 0 0 0 0.25 0"/>
            <feBlend mode="normal" in2="BackgroundImageFix" result="effect1_dropShadow"/>
            <feBlend mode="normal" in="SourceGraphic" in2="effect1_dropShadow" result="shape"/>
        </filter>
        <filter id="filter2_d" x="34" y="0" width="349" height="203" filterUnits="userSpaceOnUse" color-interpolation-filters="sRGB">
            <feFlood flood-opacity="0" result="BackgroundImageFix"/>
            <feColorMatrix in="SourceAlpha" type="matrix" values="0 0 0 0 0 0 0 0 0 0 0 0 0 0 0 0 0 0 127 0"/>
            <feOffset dy="4"/>
            <feGaussianBlur stdDeviation="2"/>
            <feColorMatrix type="matrix" values="0 0 0 0 0 0 0 0 0 0 0 0 0 0 0 0 0 0 0.25 0"/>
            <feBlend mode="normal" in2="BackgroundImageFix" result="effect1_dropShadow"/>
            <feBlend mode="normal" in="SourceGraphic" in2="effect1_dropShadow" result="shape"/>
        </filter>
        <filter id="filter3_d" x="514" y="18" width="349" height="203" filterUnits="userSpaceOnUse" color-interpolation-filters="sRGB">
            <feFlood flood-opacity="0" result="BackgroundImageFix"/>
            <feColorMatrix in="SourceAlpha" type="matrix" values="0 0 0 0 0 0 0 0 0 0 0 0 0 0 0 0 0 0 127 0"/>
            <feOffset dy="4"/>
            <feGaussianBlur stdDeviation="2"/>
            <feColorMatrix type="matrix" values="0 0 0 0 0 0 0 0 0 0 0 0 0 0 0 0 0 0 0.25 0"/>
            <feBlend mode="normal" in2="BackgroundImageFix" result="effect1_dropShadow"/>
            <feBlend mode="normal" in="SourceGraphic" in2="effect1_dropShadow" result="shape"/>
        </filter>
    </defs>
</svg>
