<?xml version="1.0" encoding="UTF-8" standalone="no"?><!DOCTYPE svg PUBLIC "-//W3C//DTD SVG 1.1//EN" "http://www.w3.org/Graphics/SVG/1.1/DTD/svg11.dtd"><svg width="100%" height="100%" viewBox="0 0 890 439" version="1.1" xmlns="http://www.w3.org/2000/svg" xmlns:xlink="http://www.w3.org/1999/xlink" xml:space="preserve" style="fill-rule:evenodd;clip-rule:evenodd;stroke-linejoin:round;stroke-miterlimit:1.41421;"><rect id="Artboard1" x="0" y="0" width="889.086" height="438.753" style="fill:none;"/><path d="M87.84,398.455c41.03,0 74.291,-36.281 74.291,-81.038c0,-44.751 -33.261,-81.032 -74.291,-81.032c-41.03,0 -74.29,36.281 -74.29,81.032c0,44.757 33.26,81.038 74.29,81.038Z" style="fill:#c5cfd6;"/><path d="M214.959,350.355c3.769,10.798 8.236,22.864 13.271,35.595l11.746,-3.914c-0.049,-0.352 -0.1,-0.703 -0.15,-1.054c3.979,-0.489 7.544,-5.583 5.744,-9.788c-0.436,-1.016 -1.884,-4.65 -4.045,-10.068c-1.947,-4.886 -4.473,-11.221 -7.358,-18.401c-7.669,-49.978 -13.977,-83.097 -17.919,-94.762c-3.237,-9.58 -27.726,-8.46 -24.909,10.814c0.53,3.623 1.76,9.964 3.509,18.072c-7.714,3.327 -14.69,12.61 -10.5,21.13c2.397,4.869 4.989,10.04 7.711,15.36c4.897,9.568 14.089,23.945 22.9,37.016Z" style="fill:#b28b67;"/><path d="M216.999,239.843c-1.959,-7.306 -90.989,-33.228 -90.989,-33.228l-7.296,0l0,7.768l61.35,35.688c-0.081,1.152 -0.031,2.371 0.166,3.656c-0.442,26.454 9.466,46.217 19.277,65.787c6.415,12.797 12.789,25.511 16.198,39.954l22.54,-3.843c-0.657,-1.916 -1.695,-10.567 -3.115,-22.398c-3.579,-29.83 -9.582,-79.857 -18.005,-93.093c-0.029,-0.044 -0.059,-0.093 -0.089,-0.137c-0.011,-0.049 -0.024,-0.104 -0.037,-0.154Z" style="fill:#1f28cf;"/><path d="M194.022,351.365c1.079,10.892 2.483,23.128 4.21,36.111l9.441,-1.422c0.02,-0.34 0.039,-0.675 0.058,-1.015c2.637,-0.44 5.279,-4.151 4.715,-8.021c-0.151,-1.032 -0.613,-4.704 -1.304,-10.183c-0.471,-3.744 -1.05,-8.339 -1.707,-13.505c2.558,-51.048 3.282,-85.089 2.179,-97.16c-0.874,-9.569 -19.415,-13.186 -20.427,5.368c-0.191,3.508 -0.297,9.723 -0.299,17.71c-5.829,1.806 -11.885,9.036 -10.273,17.633c0.939,5.012 1.971,10.342 3.07,15.832c1.963,9.804 6.175,24.84 10.337,38.652Z" style="fill:#b28b67;"/><path d="M178.126,283.266c-12.899,-2.366 -28.278,-5.95 -42.371,-9.233c-10.2,-2.377 -19.725,-4.595 -27.149,-6.083c-28.572,-5.725 -36.903,-23.204 -31.977,-61.335l52.642,0c8.599,2.821 53.289,24.236 76.476,35.627c7.1,3.492 9.88,11.183 9.956,19.143c0.014,0.038 0.024,0.071 0.032,0.11c8.042,37.807 1.709,67.324 -2.359,86.285c-1.703,7.938 -3.009,14.026 -2.695,18.089l-19.848,2.185l-12.707,-84.788Z" style="fill:#2b44ff;"/><path d="M235.941,375.756c-4.309,0 -9.186,0.631 -9.918,4.496c-0.152,0.801 -0.248,1.542 -0.248,2.141c0,2.98 0.87,8.701 0.87,8.701c3.027,0 54.417,0 54.417,0c0,0 2.121,-8.01 -2.449,-8.652c-4.57,-0.637 -7.593,-1.153 -7.593,-1.153l-20.594,-10.491c-2.904,-1.482 -6.571,-0.181 -7.609,2.701c0,0 -4.23,2.257 -6.876,2.257Z" style="fill:#e05757;"/><path d="M201.724,380.938c-4.579,-0.072 -9.773,0.576 -10.37,4.682c-0.08,0.549 -0.122,1.054 -0.109,1.483c0.083,2.843 1.154,8.311 1.154,8.311c3.176,0.055 57.083,0.911 57.083,0.911c0,0 2.002,-7.603 -2.809,-8.289c-4.813,-0.686 -7.997,-1.23 -7.997,-1.23l-22.264,-10.523c-2.969,-1.406 -6.504,-0.176 -7.539,2.618c0,0 -4.374,2.081 -7.149,2.037Z" style="fill:#e32d2d;"/><path d="M218.615,214.322l-28.719,-24.753l-6.348,18.418l28.439,13.845c8.043,11.089 12.541,15.717 13.493,13.872c0.802,-1.559 0.175,-3.014 -0.403,-4.353c-0.45,-1.043 -0.87,-2.02 -0.561,-2.915c0.706,-2.048 6.109,-1.834 11.229,-1.372c5.119,0.461 3.627,-2.213 2.393,-3.53c-5.226,-3.673 -11.734,-6.741 -19.523,-9.212Zm-41.806,71.475c-2.874,-6.17 -41.779,-53.139 -41.779,-53.139l12.32,-14.757c0,0 36.912,56.736 38.96,60.463c2.661,4.842 10.232,7.395 15.365,9.129c0.794,0.264 1.53,0.516 2.18,0.747c-0.771,3.261 -3.012,3.157 -5.374,3.047c-2.668,-0.121 -5.491,-0.247 -6.527,4.452c-0.401,1.811 -0.63,3.661 -0.854,5.473c-0.775,6.242 -1.486,11.978 -8.966,13.977c-1.186,0.318 -3.905,-0.599 -3.737,-4.09c0.419,-8.69 -0.183,-22.283 -1.588,-25.302Z" style="fill:#b28b67;"/><path d="M118.761,85.986l7.785,-1.565c28.886,29.293 40.75,85.562 76.157,115.37l-8.522,12.401c-61.424,-8.931 -76.649,-77.568 -75.42,-126.206Z" style="fill:#e87613;"/><path d="M84.824,200.834c0,0 46.823,0 68.885,0c3.148,0 2.554,-5.336 2.099,-8.031c-5.251,-31.071 -25.751,-64.564 -25.751,-108.793l-19.869,-3.657c-16.436,31.028 -22.119,69.225 -25.364,120.481Z" style="fill:#dde3e9;"/><path d="M78.521,104.036c3.698,7.833 11.251,7.334 17.776,4.957c-0.196,0.516 -0.392,1.043 -0.589,1.564l-1.334,-0.049c0,0 -0.017,1.219 0.067,3.48c-11.613,31.769 -22.865,72.601 -24.923,109.035l57.878,0c9.048,15.673 20.574,31.67 35.256,47.052l10.775,-10.491c-6.057,-21.558 -24.259,-59.678 -40.685,-91.929c-4.587,-41.403 -15.983,-86.736 -15.983,-86.736l-6.592,-0.439c-0.446,-0.083 -0.937,-0.127 -1.476,-0.127c-5.566,0 -10.029,-1.163 -13.962,-2.184c-4.805,-1.252 -8.818,-2.295 -13.086,-0.764c-7.761,2.784 -10.384,11.249 -3.122,26.631Z" style="fill:#ff9b21;"/><path d="M77.078,223.023c4.062,-11.451 8.227,-24.818 12.236,-38.619c1.492,15.201 3.977,30.467 8.114,38.619l-20.35,0Z" style="fill-opacity:0.0980392;"/><path d="M728.193,393.932c1.811,-15.882 6.592,-70.937 6.298,-96.563c-0.333,-29.248 -1.298,-54.687 -2.177,-63.948c-2.085,-22.096 -24.758,-13.181 -25.396,-1.439c-1.458,26.658 9.338,153.282 9.825,161.274c0.483,7.993 10.313,10.656 11.45,0.676Z" style="fill:#b28b67;"/><path d="M783.08,342.263l-29.834,-119.981c-7.655,-19.675 -33.383,2.031 -31.03,13.323c5.344,25.643 35.125,109.359 36.722,117.001l24.142,-10.343Z" style="fill:#1f28cf;"/><path d="M777.253,361.724c3.763,-2.64 8.314,-4.886 10.458,-0.983c0.3,0.555 0.552,1.076 0.718,1.543c1.083,3.025 2.407,9.343 2.407,9.343c-2.611,1.834 -46.949,32.977 -46.949,32.977c0,0 -4.738,-6.835 -1.024,-10.25c3.709,-3.414 6.132,-5.769 6.132,-5.769l14.236,-23.556c1.871,-3.091 5.259,-3.799 7.21,-1.499l0.064,0.077c0,0 4.465,-0.28 6.748,-1.883Z" style="fill:#030b0b;"/><path d="M723.776,392.938c4.015,-0.79 8.667,-1.07 10.109,2.838c0.38,1.027 0.675,1.982 0.82,2.751c0.622,3.348 0.997,9.941 0.997,9.941c-2.841,0.56 -51.082,10.03 -51.082,10.03c0,0 -3.66,-8.619 0.494,-10.178c4.159,-1.559 6.887,-2.695 6.887,-2.695l16.954,-15.41c2.477,-2.256 6.352,-1.542 7.901,1.455c0,0 4.438,1.751 6.92,1.268Z" style="fill:#1c1212;"/><path d="M703.863,240.897c-1.86,33.46 5.419,112.159 5.012,119.532l24.994,1.438c0,0 0.327,-104.77 1.983,-105.802c1.656,-1.037 64.937,12.412 84.078,13.494c27.605,1.559 40.346,-21.602 43.728,-65.656l-54.684,-3.091c-11.224,0.999 -70.185,13.741 -92.059,18.028c-9.364,1.839 -12.537,12.84 -13.052,22.057Z" style="fill:#2b44ff;"/><path d="M810.486,431.689c39.964,0 72.361,-36.868 72.361,-82.344c0,-45.476 -32.397,-82.344 -72.361,-82.344c-39.965,0 -72.361,36.868 -72.361,82.344c0,45.476 32.396,82.344 72.361,82.344Z" style="fill:#c5cfd6;"/><path d="M718.116,138.851l35.59,-16.48l7.815,20.789l-35.221,5.402c-9.975,8.866 -15.549,12.209 -16.723,10.03c-0.992,-1.834 -0.209,-3.13 0.509,-4.321c0.558,-0.928 1.078,-1.795 0.697,-2.81c-0.868,-2.312 -7.552,-3.755 -13.888,-4.853c-6.336,-1.104 -4.486,-3.382 -2.953,-4.348c6.475,-2.147 14.531,-3.283 24.174,-3.409Zm23.112,38.125l32.327,-27.481l5.574,22.123l-31.308,14.625c-9.326,12.604 -14.435,17.786 -15.33,15.552c-0.755,-1.883 0.011,-3.563 0.713,-5.111c0.552,-1.202 1.067,-2.328 0.793,-3.404c-0.621,-2.464 -6.41,-2.536 -11.915,-2.3c-5.499,0.236 -3.731,-2.827 -2.326,-4.315c5.832,-4.018 12.987,-7.246 21.472,-9.689Z" style="fill:#b28b67;"/><path d="M825.612,73.497c-18.964,39.459 -44.859,69.065 -81.698,99.28l12.194,20.147c40.174,-16.639 61.458,-26.845 73.728,-64.443c3.076,-9.437 6.555,-39.877 8.972,-55.862l-13.196,0.878Z" style="fill:#2026a2;"/><path d="M864.864,210.754l-74.103,-4.189c0,0 30.713,-98.11 33.323,-135.176c0.091,-1.257 2.01,-3.376 2.788,-3.041c8.538,3.683 18.792,-1.334 18.792,-1.334c15.528,37.615 19.093,83.047 19.2,143.74Z" style="fill:#f2f2f2;"/><path d="M831.964,239.684l39.514,2.235c9.316,-54.309 -2.959,-131.038 -16.123,-170.129c-0.504,-1.494 -1.592,-4.315 -4.519,-4.485l-11.481,-0.648c-2.305,7.279 -4.508,14.564 -6.587,21.794c-1.335,0.861 -2.718,1.762 -4.138,2.69c-17.866,11.627 -42.768,27.843 -78.483,32.893l9.402,23.957c20.706,3.371 40.694,5.281 58.109,3.843c-8.887,49.467 -7.092,86.643 14.306,87.85Z" style="fill:#1f28cf;"/><path d="M829.766,57.055c-5.071,2.18 -9.53,3.091 -11.991,2.476c-8.56,-2.141 -9.347,-32.509 -2.722,-44.482c6.619,-11.973 40.672,-17.194 42.387,6.533c0.654,9.013 -3.688,16.968 -9.782,23.248l8.388,24.544l-21.44,0l-8.04,-2.745l3.2,-9.574Z" style="fill:#b28b67;"/><path d="M834.494,24.2c-2.375,-3.425 -4.653,-6.039 -7.617,-7.559c-12.06,0.186 -13.47,-1.911 -13.47,-8.976c1.946,-1.356 8.817,-3.628 16.514,-4.271c3.929,-1.087 8.577,-0.883 13.058,0.934c5.531,1.52 10.216,4.798 12.285,10.935c7.483,12.527 1.806,25.565 -5.853,30.023c-2.037,-2.344 -3.817,-4.612 -5.403,-6.785c1.275,-1.208 2.069,-2.894 2.069,-4.754c0,-3.673 -3.072,-6.654 -6.861,-6.654c-0.279,0 -0.552,0.017 -0.82,0.049c-0.172,4.59 -0.874,20.131 -2.718,25.527c-2.171,6.363 -14.842,7.922 -19.264,7.922c-3.816,0 -3.688,-3.503 -3.597,-6.017c0.016,-0.362 0.027,-0.703 0.027,-1.01c0,-0.642 0.863,-0.642 1.833,-0.637c1.265,0 2.718,0.006 2.718,-1.405c0,-1.532 -2.182,-2.706 -4.138,-3.755c-1.217,-0.659 -2.348,-1.268 -2.803,-1.883c-1.432,-1.943 -1.914,-4.567 0.246,-4.567c1.185,0 2.803,0.658 4.755,1.454c2.942,1.203 6.635,2.707 10.704,2.707c6.716,0 8.313,-21.014 8.335,-21.278Z" style="fill:#191847;"/><path d="M379,152.416l0,-0.697l-30.788,50.663l1.489,0l29.299,-49.966Z" style="fill:#1a1616;fill-rule:nonzero;"/><path d="M348.935,203.557l0,-2.437l-61.039,2.437l0,1.005l61.039,-1.005Z" style="fill:#302a2a;fill-rule:nonzero;"/><path d="M663.153,207.636l-2.674,2.344l-47.019,-56.164l2.669,-2.35l47.024,56.17Z" style="fill:#1a1616;fill-rule:nonzero;"/><path d="M634.466,224.176l-2.766,0.049l-0.777,-45.009l2.766,-0.049l0.777,45.009Z" style="fill:#1a1616;fill-rule:nonzero;"/><path d="M627.627,177.58l-0.761,-3.903l3.28,4.672l1.822,2.618l-4.341,-3.387Z" style="fill:#1a1616;fill-rule:nonzero;"/><ellipse cx="491.561" cy="209.36" rx="37.521" ry="24.703" style="fill:#c4c4c4;"/><path d="M125.756,67.925c6.834,4.606 13.67,6.725 16.622,5.676c6.857,-2.437 5.625,-32.136 -0.522,-43.565c-6.147,-11.424 -34.27,-15.141 -34.206,8.102c0.026,9.563 4.746,17.671 10.771,23.732l-0.818,0.038l-6.607,18.445l6.607,5.49l13.301,5.995l-5.148,-23.913Z" style="fill:#b28b67;"/><path d="M119.25,66.525c-3.937,-14.361 -13.166,-23.825 -12.262,-30.374c0.904,-6.555 6.495,-8.416 6.495,-8.416c0,0 2.131,-13.005 18.294,-11.885c16.163,1.126 26.408,7.829 23.181,23.875c-3.887,0.192 -8.675,-1.093 -14.999,1.828c-3.01,1.394 -3.932,7.899 -3.932,7.899l-2.932,0.143c0,0 -4.751,-7.427 -8.772,-5.193c-4.022,2.229 -1.265,9.931 -1.265,9.931l-0.688,12.038l-3.12,0.154Z" style="fill:#191847;"/><path d="M277.158,409.731l0,-159.199l0,-43.917l391.286,0l0,203.116l-65.736,0l11.538,-163.518l-284.044,2.16l12.692,161.358l-65.736,0Z" style="fill:#d0c4c4;"/><ellipse cx="800.348" cy="364.773" rx="21.535" ry="23.492" style="fill:#ebebeb;"/></svg>