<svg xmlns="http://www.w3.org/2000/svg" viewBox="0 0 475 446"><defs><style>.cls-1,.cls-3{fill:#f2f2f2;}.cls-2{fill:#2f00a8;}.cls-3{stroke:#2f00a8;stroke-linecap:square;stroke-linejoin:bevel;stroke-width:15px;}</style></defs><title>Asset 3</title><g id="Layer_2" data-name="Layer 2"><g id="Layer_1-2" data-name="Layer 1"><rect class="cls-1" x="6" y="6" width="463" height="434" rx="6.47"/><path class="cls-2" d="M462.53,12a.47.47,0,0,1,.47.47V433.53a.47.47,0,0,1-.47.47H12.47a.47.47,0,0,1-.47-.47V12.47a.47.47,0,0,1,.47-.47H462.53m0-12H12.47A12.47,12.47,0,0,0,0,12.47V433.53A12.47,12.47,0,0,0,12.47,446H462.53A12.47,12.47,0,0,0,475,433.53V12.47A12.47,12.47,0,0,0,462.53,0Z"/><polyline class="cls-3" points="105.53 216.26 213.18 307.99 392.57 91.97"/></g></g></svg>